<?xml version="1.0" encoding="utf-8"?>
<!-- Generator: Adobe Illustrator 26.1.0, SVG Export Plug-In . SVG Version: 6.00 Build 0)  -->
<svg version="1.1" id="Layer_1" xmlns="http://www.w3.org/2000/svg" xmlns:xlink="http://www.w3.org/1999/xlink" x="0px" y="0px"
	 viewBox="0 0 118 118" style="enable-background:new 0 0 118 118;" xml:space="preserve">
<style type="text/css">
	.st0{fill:#FFFFFF;}
	.st1{fill:#5AFFFF;}
	.st2{fill:#60646C;}
</style>
<g>
	<circle cx="59" cy="59" r="59"/>
	<g>
		<g>
			<path class="st0" d="M65,50.2c1.79,0.45,3.58,1.06,5.34,1.86c2.14,0.97,3.88,2.2,5.28,3.71C73.57,52.39,69.2,50.86,65,50.2z"/>
			<path class="st0" d="M98.38,37.6c-1.1-5-7.97-0.12-9.64,1.29c-2.79,2.36-5.43,4.86-7.98,7.48c-0.39,0.4-5,5.46-6.26,5.88
				c0.02-0.06,0.04-0.12,0.04-0.2c0.26-4.75,3.05-8.76,5.23-12.83c1.83-3.4,3.46-6.75,4.21-10.56c0.42-2.12,0.95-5.52-0.87-7.2
				c-1.65-1.52-5.1-2.65-6.98-0.74c-3.82,3.89-6,9.21-7.37,14.4c-0.38,1.43-2.61,10.98-4.8,13.13c-0.37-0.05-0.73-0.12-1.1-0.15
				c-1.99-7.57,1.32-16.34,2.61-23.92c0.58-3.43,0.78-10.97-4.7-10.62c-5.37,0.34-5.78,7.95-6.52,11.94
				c-0.7,3.76-1.1,7.58-1.54,11.38c-0.25,2.15-0.58,4.29-0.98,6.42c-0.28,1.49-0.56,4.87-1.92,5.84c-1.79-4.04-1.17-8.74-0.96-13.04
				c0.17-3.69,0.51-7.81-0.13-11.46c-0.66-3.76-4.39-9.62-8.44-4.89c-3.67,4.29-3.04,10.04-2.21,15.22
				c1.22,7.7,1.43,15.51,2.34,23.25c-0.05,0.87-0.09,1.75-0.13,2.62c0.02-0.46-0.82,4.42-0.87,4.36c-0.01-0.01-0.02-0.01-0.04-0.02
				l-0.01,0.11c-0.01,0.16-0.15,0.3-0.31,0.31c-0.09,0.05-0.19,0.08-0.26-0.01c-0.12-0.14-0.23-0.28-0.33-0.43
				c-0.76-0.37-1.5-0.83-2.21-1.43c-2.71-4.16-6.88-7.82-12.09-7.11c-5.45,0.75-5.87,5.72-2.84,9.27c2.65,3.11,6.19,4.86,8.06,8.67
				c1.67,3.42,2.47,7.11,4.34,10.46c1.48,2.65,3.55,4.93,6.04,6.66c1.04,0.72,2.11,1.18,3.2,1.51c1.19,0.01,2.46,0.35,2.8,1.54
				c0.14,0.49-0.22,1.09-0.52,1.44c-1.37,1.53-2.77,3.45-0.72,5.17c1.5,1.27,3.18,2.15,4.96,2.77c2.55,0.46,5.25,0.36,7.96,0.03
				c5.1-0.61,11.94-1.38,15.4-5.26c2.26-2.54,4.29-9.09,0.71-11.8c2.39-2.11,4.35-4.81,5.66-7.98c1.83-4.43,2.59-10.62,1.55-16.07
				c0.09-0.57,0.21-1.13,0.4-1.69c0.76-2.2,2.64-3.88,4.29-5.42c2.25-2.1,4.9-3.79,7.19-5.86C95.88,47.14,99.38,42.17,98.38,37.6z
				 M69.99,33.95c0.87-3.35,2.32-6.26,4.31-9.09c2-2.85,6.67-5.76,8.44-0.77c0.84,2.38-0.52,6.25-1.33,8.49
				C79.1,39,73.77,44.72,73.47,51.73c-2.68-1.77-5.73-2.85-8.9-3.38C67.13,45.53,69.62,35.39,69.99,33.95z M51.43,47.9
				c0.83-2.7,1.3-5.56,1.73-8.34c1-6.53,1.6-13.05,3.12-19.5c0.62-2.66,2.45-6.06,5.75-4.86c3.05,1.1,2.76,5.24,2.47,7.74
				c-0.39,3.4-1.12,6.78-1.71,10.15c-0.91,5.22-2.1,9.84-0.8,14.96c-3.85-0.29-7.77,0.14-11.35,1.1
				C51.01,48.83,51.26,48.44,51.43,47.9z M95.84,43.4c-2.87,6.63-13.07,10.57-15.58,17.47c-0.16-0.54-0.35-1.07-0.55-1.59
				c1.5,8,0.77,17.88-4.23,24.01c-1.12,1.37-2.57,2.67-4.13,3.87c0.16,0.81,0.14,1.58-0.1,2.31c0.04,0.09,0.05,0.19,0,0.33
				c-1.34,3.57-6.88,5.94-10.25,7c-2.69,0.84-5.38,1.22-8.2,1.25c-1.8,0.02-3.67,0.18-5.32-0.66c-0.12-0.06-0.16-0.17-0.15-0.28
				c0,0,0,0-0.01,0c0.01-0.87-0.06-1.76-0.4-2.54c-0.02-0.2-0.04-0.4-0.08-0.59c0.48,0.06,0.98,0.12,1.47,0.18
				c-0.54-0.22-1.07-0.5-1.62-0.75c-1.29-0.59-2.66-0.83-3.99-1.3c-2.55-0.91-4.59-2.41-6.21-4.6c-3.6-4.87-4.38-10.88-7.32-16.04
				c-0.85-1.09-1.88-2.02-2.99-2.94c-2.16-1.8-9.77-6.87-3.72-10.26c5.84-3.26,9.59,3.17,13.26,6.21c0.03,0.02,0.05,0.03,0.08,0.04
				c0.85,1.05,1.87,1.82,2.99,2.4c1.81,0.53,3.83,0.62,5.44,0.49c2.94-0.24,5.42-0.1,7.99,0.47c-4.02-1.22-8.27-0.78-12.06-1.97
				c0.56-0.77,0.67-1.99,0.88-2.82c0.3-1.18,0.39-2.37,0.45-3.52c-0.14-1.13-0.29-2.25-0.41-3.38c-0.06-0.43-0.11-0.86-0.14-1.29
				c-0.04,0.11-0.09,0.22-0.12,0.33c-0.19-4.96-0.27-9.92-0.56-14.87c-0.3-5.06-1.98-9.96-1.14-15.06c0.23-1.38,0.86-2.61,1.58-3.79
				c2.81-4.58,6.09-0.15,6.9,2.36c1.09,3.38,0.71,7.62,0.64,11.15c-0.09,4.83-1,9.97,0.88,14.55c-1.33,0.36-2.68,0.77-3.92,1.35
				c-0.06,0.06-0.11,0.14-0.17,0.21c4.46-2.22,10.13-2.4,14.9-2.23c5.05,0.19,12.39,1.05,15.8,5.42c-0.06-0.21-0.12-0.43-0.2-0.64
				c-0.04-0.09-0.02-0.19,0.03-0.27c-0.07-0.06-0.14-0.13-0.22-0.19c0.26-0.14,0.52-0.37,0.85-0.67c2.07-1.94,3.96-4.03,5.99-6.02
				c2.05-2.01,4.17-3.94,6.38-5.77c1.38-1.14,2.73-2.25,4.3-3.14C96.93,35.3,96.91,40.93,95.84,43.4z"/>
		</g>
		<g>
			<path class="st0" d="M79.07,35.6c1.41-2.61,3.02-6.68,3.05-10.3c-0.16-1.19-0.51-2.37-1.11-3.54c-2.16-1.21-5.19,0.97-6.71,3.12
				c-1.99,2.83-3.44,5.74-4.31,9.09c-0.37,1.44-2.87,11.58-5.42,14.4c2.93,0.49,5.75,1.47,8.28,3.01
				C73.2,45.63,76.41,40.52,79.07,35.6z"/>
			<path class="st0" d="M74.75,46.09c0.74-1.92,1.72-3.78,2.74-5.62c0.52-1.02,1.04-2.04,1.55-3.06
				C77.5,40.27,75.82,43.07,74.75,46.09z"/>
			<path class="st0" d="M63.33,27.54c0.62-3.47,2.43-11.37-2.45-12.49c-0.07-0.02-0.12-0.05-0.16-0.1c-2.48,0-3.91,2.81-4.45,5.1
				c-1.51,6.45-2.11,12.97-3.12,19.5c-0.43,2.79-0.91,5.64-1.73,8.34c-0.17,0.55-0.42,0.93-0.79,1.23
				c3.41-0.91,7.14-1.34,10.82-1.12C59.24,41.54,62.2,33.93,63.33,27.54z"/>
			<path class="st0" d="M31.83,60.66c-1.03-0.99-2.11-1.91-3.28-2.52C29.66,58.81,30.75,59.71,31.83,60.66z"/>
			<path class="st0" d="M48.26,34.99c0.02-1.02,0.06-2.1,0.09-3.2c-0.21,2.92-0.38,5.86-0.4,8.79c-0.01,0.88-0.01,1.78,0.03,2.69
				C47.9,40.51,48.21,37.7,48.26,34.99z"/>
			<path class="st0" d="M95.28,37.23c-0.56-0.29-1.33-0.25-2.4,0.35c-1.57,0.89-2.92,2-4.3,3.14c-2.21,1.83-4.33,3.76-6.38,5.77
				c-2.03,1.98-3.92,4.08-5.99,6.02c-0.33,0.3-0.58,0.53-0.85,0.67c0.07,0.06,0.15,0.13,0.22,0.19c-0.04,0.09-0.06,0.18-0.03,0.27
				c0.15,0.4,0.27,0.8,0.37,1.2c0.05,0.48,0.11,0.95,0.17,1.43c-1.47-1.75-3.38-3.12-5.75-4.2c-8.14-3.7-16.73-3.64-24.94,0
				c-0.7,0.31-1.25,0.67-1.71,1.06c0.38-0.82,0.89-1.57,1.53-2.24c1.12-0.52,2.33-0.9,3.52-1.23c-5.43-8.66,3.98-23.54-5.11-30.13
				c-0.95-0.09-1.95,0.41-2.91,1.96c-0.72,1.18-1.35,2.41-1.58,3.79c-0.84,5.1,0.84,10,1.14,15.06c0.29,4.95,0.38,9.91,0.56,14.87
				c0.03-0.11,0.08-0.22,0.12-0.33c0.03,0.43,0.08,0.86,0.14,1.29c0.12,1.13,0.27,2.26,0.41,3.38c-0.06,1.16-0.15,2.35-0.45,3.52
				c-0.21,0.83-0.32,2.05-0.88,2.82c4.09,1.29,8.73,0.64,13.02,2.28c6.1,2.32,9.1,7.31,11.53,13.14c0.12,0.29-0.25,0.73-0.47,0.39
				c-2.01-3.01-3.56-6.57-6.33-9c-3.05-2.68-6.74-3.69-10.72-4c-2.76-0.21-5.57-0.51-7.94-1.59c-6.21-1.76-11.97-14.13-18.7-7.12
				c-0.02,0.02-0.03,0.02-0.05,0.04c-1.74,3.18,3.87,6.97,5.67,8.48c0.17,0.14,0.35,0.29,0.52,0.44c4,1.61,5.67,7.36,7.08,10.93
				c2.37,6,5.67,11.35,12.41,12.91c0.19,0.04,0.25,0.19,0.23,0.36c0.95,0.29,1.93,0.48,2.91,0.7c0.06,0.16-0.08,0.42-0.27,0.4
				c-0.75-0.1-1.48-0.18-2.21-0.27c0.04,0.2,0.06,0.39,0.08,0.59c0.34,0.78,0.4,1.68,0.4,2.54c0.27,0.12,0.59,0.2,0.96,0.23
				c1.72,0.12,3.32,0.17,5.05,0.06c3.51-0.22,7.47-0.8,10.61-2.43c1.97-1.02,7.53-3.31,7.31-6.11c-3.75,2.46-8.28,3.65-13.1,3.16
				c-0.15-0.01-0.24-0.09-0.29-0.19c-0.33-0.19,0.07-0.54,2.46-0.95c14.41-2.44,19.88-14.49,19.39-26.74
				c-0.06-0.93-0.13-1.87-0.2-2.8c-0.11-1.54-0.62-3.02-1-4.51c0.59,1,1.08,2.09,1.47,3.24c0.3-3.11,3.64-5.63,5.82-7.45
				c2.62-2.19,5.65-4.15,7.8-6.83C95.82,43.05,96.14,40.34,95.28,37.23z"/>
		</g>
	</g>
</g>
</svg>
