<?xml version="1.0" encoding="utf-8"?>
<!-- Generator: Adobe Illustrator 26.1.0, SVG Export Plug-In . SVG Version: 6.00 Build 0)  -->
<svg version="1.1" id="Layer_1" xmlns="http://www.w3.org/2000/svg" xmlns:xlink="http://www.w3.org/1999/xlink" x="0px" y="0px"
	 viewBox="0 0 118 118" style="enable-background:new 0 0 118 118;" xml:space="preserve">
<style type="text/css">
	.st0{fill:#FFFFFF;}
	.st1{fill:#5AFFFF;}
	.st2{fill:#60646C;}
</style>
<g>
	<circle cx="59" cy="59" r="59"/>
	<g>
		<path class="st0" d="M85.67,39.54c-0.47-0.43-1.27-1.2-2.29-2.14c0.11-0.11,0.2-0.24,0.22-0.38c0.33-2.32,1.51-4.82,0.98-7.2
			c-0.56-2.55-2.3-4.19-4.37-5.67c-1.51-1.08-4.07-2.42-6.02-1.89c-1.99,0.53-3.14,2.03-4.76,3.17c-1.25-1.12-2.84-1.98-4.26-2.23
			c-2.59-0.46-4.37,2.3-5.96,4.07c-0.65-0.64-1.38-1.25-2.24-1.8c-1.5-0.97-3.65-1.36-5.34-0.7c-2.78,1.08-5.94,4.96-9.15,3.67
			c-0.1-0.04-0.19-0.03-0.27,0.01c-2.97-1.67-5.38-1.62-7.17,2.06c-2.73,5.64-7.07,11.03-7.76,17.41
			c-0.39,3.61,0.81,7.79,1.25,11.38c0.42,3.37,0.8,6.63,1.66,9.93c1.53,5.83,4.53,9.44,8.76,12.89c-3.47,0.26-4.55,4.41-3.34,7.46
			c4.41,6.26,13.99,6.89,21.02,5.95c6.37-0.85,14.3-2,18.99-6.86c2.52-3.78,2.22-8.49-2.78-9.68c-0.04-0.01-0.07,0-0.11,0
			c0-0.01,0-0.02,0-0.02c5.22-2.31,9.72-5.63,12.28-11.45c2.37-5.41,4.45-11.27,5.55-17.08C91.52,45.42,89.18,42.75,85.67,39.54z
			 M38.79,83.25c0.25-0.05,0.53-0.09,0.84-0.1c0.05,0.35,0.12,0.69,0.2,1.04C39.47,83.9,39.13,83.58,38.79,83.25z M87.03,58.47
			c-1.47,4.47-3.12,8.77-5.88,12.62c-1.52,2.11-3.55,3.58-5.77,4.77c-0.6,0.43-1.2,0.85-1.84,1.25c-1.14,0.72-1.67,1.47-2.17,2.51
			c-0.08,0.44-0.14,0.98-0.13,1.52c0.14,0.1,0.21,0.32,0.07,0.56c-0.01,0.01-0.02,0.02-0.02,0.03c0,0.02,0,0.04,0.01,0.06
			c-0.04,0.03-0.07,0.05-0.1,0.08c-3.11,4.92-9.93,6.57-15.41,6.87c-3.19,0.17-6.44-0.12-9.59-0.71c-1.96-0.37-4.57-0.85-5.59-2.8
			c-0.11-0.21,0.03-0.47,0.2-0.62c-0.02-0.39-0.06-0.78-0.13-1.16c0.25,0.19,0.51,0.38,0.76,0.57c0.06,0.05,0.13,0.06,0.19,0.06
			c-0.41-0.69-0.79-1.41-1.22-2.07c-0.01-0.01-0.03-0.02-0.04-0.03c0-0.01-0.01-0.03-0.01-0.04c-0.04-0.07-0.09-0.14-0.14-0.2
			c-0.05-0.03-0.12-0.04-0.19-0.03c-2.41-1.97-4.69-3.97-6.28-6.8c-2.78-4.94-3.37-10.37-3.86-15.89
			c-0.38-4.34-1.41-9.22-0.47-13.51c0.99-4.53,4.3-9.02,6.28-13.19c1.33-2.8,2.87-4.34,6.04-2.41c0.11,0.07,0.21,0.15,0.32,0.22
			c1.54,0.04,3.15,0.74,4.61,1.72c-0.77-0.76-1.6-1.47-2.48-2.12c1.36,0.01,2.66-0.63,3.98-1.4c1.77-1.03,3.17-2.22,5.36-2.21
			c1.06,0,2.03,0.47,2.9,1.15c1.57,0.42,3.12,1.01,4.4,1.98c-0.35-0.53-0.73-1.04-1.17-1.52c1.68-1.42,3.15-3.46,5.61-2.81
			c0.34,0.09,0.65,0.24,0.95,0.42c1.75,0.16,3.34,1.07,4.86,2.05c-0.25-0.42-0.54-0.84-0.9-1.23c0.75-0.28,1.39-0.67,2.1-1.16
			c2.54-1.77,5.09-0.24,7.23,1.41c2.01,1.55,3.1,3.22,3.13,5.81c0.01,1.45-0.47,2.73-0.42,4.12c-1.22-1.11-2.66-2.36-4.18-3.58
			c1.7,2.39,3.37,4.8,5.16,7.11c1.82,1.52,3.58,3.13,4.93,4.96C90.82,48.49,88.28,54.66,87.03,58.47z"/>
		<path class="st0" d="M62.75,48.04c-0.28,0.91-1.28,3.04-0.51,3.89c1.05,1.18,2.58,0.82,3.92,0.6c2.03-0.33,3.3-1.64,4.46-3.16
			c0.53-1.02,0.86-2.14,1.25-3.47c0.03-0.1,0.12-0.2,0.22-0.28c-3.52-1.54-6.53-3.86-8.41-7.5c-0.1-0.19-0.19-0.37-0.28-0.56
			c0.08,0.71,0.14,1.43,0.19,2.16c0.16,2.46-0.09,5.27-0.84,7.94C62.79,47.76,62.8,47.88,62.75,48.04z"/>
		<path class="st0" d="M69.55,52.78c1.1-0.25,2.24-0.5,3.3-0.82c-0.88-1.95,0.28-4.09-0.13-6.06c-0.01,0-0.02-0.01-0.04-0.02
			C73.19,48.37,71.71,50.99,69.55,52.78z"/>
		<path class="st0" d="M81.2,35.42c0.9-4.09-1.63-8.68-5.03-10.96c-1.26-0.41-2.58-0.39-3.9,0.53c-0.71,0.49-1.34,0.88-2.1,1.16
			c0.42,0.46,0.78,0.95,1.04,1.45c0.09,0.17,0.11,0.37,0.07,0.57C74.68,29.93,78.35,32.9,81.2,35.42z"/>
		<path class="st0" d="M63.09,28.22c1.12-1.54,2.84-1.82,4.84-1.36c-0.76-0.87-1.59-1.67-2.67-1.95c-2.46-0.65-3.93,1.4-5.61,2.81
			c0.97,1.06,1.69,2.24,2.23,3.49C62.02,30.19,62.39,29.19,63.09,28.22z"/>
		<path class="st0" d="M51.91,44.53c-0.08,1.61-0.38,3.18-0.7,4.75c-0.36,1.05-0.82,2.07-1.32,3.06c-0.12,1.86,0.58,3.31,3.4,3.12
			c4.08-0.27,6.29-5.24,8.21-8.31c0.01-0.01,0.02-0.02,0.02-0.03c1.52-4.42,0.73-12.01-1.79-15.93c-1.29-2.01-3.47-5.08-6.2-5.08
			c-2.19,0-3.59,1.18-5.36,2.21c-1.32,0.77-2.62,1.41-3.98,1.4C48.99,33.25,52.2,38.49,51.91,44.53z"/>
		<path class="st0" d="M70.77,77.95c0.2-0.08,0.4-0.16,0.6-0.25c1.27-0.98,2.66-1.73,4.06-2.53c2.27-1.29,3.99-2.89,5.38-5.12
			c2.2-3.54,3.95-7.59,5.33-11.53c1.42-4.06,2.86-9.38,0.48-13.39c-1.72-2.89-4.46-4.97-6.41-7.67c-0.38-0.3-0.76-0.6-1.13-0.9
			c-3.24-2.61-6.28-5.9-10.28-7.34c-1.92-0.69-6.9-2.18-5.32,3.83c0.22,1.04,0.58,2.03,1.06,2.98c0.61,1.12,1.26,2.31,2.08,3.33
			c0.62,0.9,1.33,1.75,2.1,2.56c1.73,1.83,3.97,3.03,5.88,4.62c-0.4-0.13-0.8-0.25-1.18-0.39c0.17,0.67,0.21,1.36,0.2,2.09
			c-0.01,0.75,0.03,1.42,0.21,2.15c0.12,0.47,0.21,0.79,0.16,1.17c0.76-0.29,1.45-0.64,2.03-1.08c-0.41,0.73-0.96,1.36-1.6,1.92
			c-0.99,0.52-2.07,0.88-3.13,1.28c-2.77,1.05-5.5,2.18-8.1,3.63c-3.05,1.7-6.26,3.68-7.86,6.89c-0.7,0.88-1.31,1.84-1.8,2.89
			c-0.43,0.91-0.68,1.86-0.83,2.83c-0.13,0.67-0.22,1.34-0.28,1.99c-0.11,1.32-0.16,2.73-0.08,4.13c-0.06-0.04-0.1-0.1-0.12-0.19
			c-1.54-5.71,0.29-13.25,5.06-16.98c1.88-1.47,3.96-2.83,6.12-3.94c-1.21-0.15-2.31-0.74-3.14-1.88c-0.81,1.17-1.78,2.2-2.92,3.01
			c-0.39,0.28-0.79,0.52-1.21,0.74c-0.1,0.17-0.25,0.31-0.41,0.35c-0.36,0.1-0.73,0.18-1.1,0.27c-0.47,0.15-0.94,0.25-1.41,0.3
			c-0.04-0.02-0.08-0.03-0.15-0.03c-3.89,0.23-7.82,0.8-11.57,1.86c-1.79,0.5-4.32,1.33-5.81,2.85c0.82-1.12,1.98-2.17,3.21-2.95
			c-1.36-0.65-2.44-1.79-2.71-3.46c-0.33-2.07,0.07-4,0.74-5.88c0.05-1.3,0.31-2.67,0.68-4.02c-0.65-2.54-1.23-6.18,0.86-7.58
			c0.29-0.2,0.46,0.16,0.24,0.37c-1.34,1.3-1.06,3.56-0.61,5.6c0.61-1.79,1.35-3.47,2-4.88c-0.34,1.61-0.71,3.21-0.99,4.83
			c-0.61,1.59-1.11,3.16-1.39,4.85c-0.38,2.26-0.8,6.23,1.22,7.93c0.83,0.7,1.85,0.97,2.86,0.92c0.65-0.18,1.32-0.34,1.99-0.51
			c0.59-0.27,1.14-0.64,1.6-1.09c1.39-1.34,2.5-3.36,3.28-5.42c0.22-0.37,0.44-0.74,0.64-1.12c0.48-2.57,1.16-5.36,0.82-7.97
			c-0.39-2.99-1.89-5.11-3.53-7.49c-1.29-1.87-2.93-3.47-4.89-4.66c-3.17-1.93-4.71-0.39-6.04,2.41c-1.98,4.17-5.29,8.65-6.28,13.19
			c-0.94,4.29,0.09,9.17,0.47,13.51c0.49,5.52,1.08,10.95,3.86,15.89c1.59,2.82,3.87,4.82,6.28,6.8c0.07-0.01,0.14,0,0.19,0.03
			c0.05,0.07,0.09,0.13,0.14,0.2c0,0.01,0.01,0.03,0.01,0.04c0.01,0.01,0.03,0.02,0.04,0.03c0.44,0.66,0.81,1.38,1.22,2.07
			c-0.06,0-0.13-0.02-0.19-0.06c-0.26-0.19-0.51-0.38-0.76-0.57c0.09,0.49,0.15,0.99,0.14,1.48c4.16,2.78,9.58,2.95,14.63,2.58
			c3.43-0.25,6.72-0.96,9.95-2.13c1.72-0.62,3.08-1.47,4.38-2.43c0.08-0.98,0.2-1.96,0.34-2.94c-3.48,1.3-7.16,2.31-10.75,3.37
			C63.36,81.96,67.22,80.24,70.77,77.95z"/>
	</g>
</g>
</svg>
