<?xml version="1.0" encoding="utf-8"?>
<!-- Generator: Adobe Illustrator 26.1.0, SVG Export Plug-In . SVG Version: 6.00 Build 0)  -->
<svg version="1.1" id="Layer_1" xmlns="http://www.w3.org/2000/svg" xmlns:xlink="http://www.w3.org/1999/xlink" x="0px" y="0px"
	 viewBox="0 0 118 118" style="enable-background:new 0 0 118 118;" xml:space="preserve">
<style type="text/css">
	.st0{fill:#FFFFFF;}
	.st1{fill:#5AFFFF;}
	.st2{fill:#60646C;}
</style>
<g>
	<circle cx="59" cy="59" r="59"/>
	<g>
		<g>
			<path class="st0" d="M85.17,56.73c-0.77-1.86-2.13-3.28-4.46-3.14c-1.25,0.07-2.81,0.71-3.98,1.49c0.45-1.29,0.7-2.72,0.68-3.84
				c-0.04-2.07-0.84-3.25-2.38-4.57c-1.46-1.26-4.07-1.19-5.85-0.98c-2.03,0.24-3.88,1.47-5.34,2.84c-0.07,0.02-0.14,0.02-0.21,0.04
				c-0.19,0.04-0.38-0.06-0.38-0.28c0-0.05,0.01-0.1,0.01-0.15c-0.01-0.05-0.01-0.1,0-0.17c0.01-0.03,0.02-0.06,0.02-0.1
				c0.06-0.65,0.25-1.28,0.5-1.88c0.07-0.81,0.51-1.52,0.95-2.19c-0.02,0.01-0.04,0.01-0.06,0.02c1.12-2.93,2.72-5.84,3.85-8.56
				c1.58-3.8,3.25-7.64,4.57-11.52c1.37-4.01,1.27-9.8-4.69-9.08c-6.45,0.78-8.31,7.39-10.13,12.1c-1.61,4.17-3.3,8.31-4.99,12.46
				c-0.81,1.97-1.65,3.92-2.58,5.84c-0.15,0.66-0.47,1.16-0.95,1.52c-0.12,0.33-0.25,0.65-0.37,0.98
				c-2.7-2.68-1.54-11.92-1.51-14.63c0.04-4.66,0.23-9.3-0.17-13.95c-0.51-5.79-3.75-8.49-8.81-5.07
				c-6.26,4.23-3.37,15.1-3.02,21.23c0.28,4.84,0.31,9.65,0.13,14.49c-0.19,5.06,0.08,11.47-2.13,16.24
				c-0.95,1.21-1.63,2.56-1.81,4.22c-0.42,3.82,0.43,7.52,2.34,10.91c1.03,1.81,2.71,4.08,4.72,5.6c-0.77-0.14-1.55-0.2-2.33-0.3
				c-1.13,0.5-2.79,0.73-3.47,1.82c-0.17,0.28-0.31,0.57-0.43,0.87c-0.39,1.81,0.15,3.89,0.82,5.5c2.09,4.99,9.74,7.85,14.4,9.41
				c5.22,1.74,13.06,2.63,18.31,0.32c0.81-0.53,1.53-1.17,2.08-1.98c1.73-2.6,2.31-6.07-0.12-8.43c-0.16-0.02-0.32-0.04-0.51-0.05
				c-0.42-0.02-0.32-0.62-0.02-0.75c2.11-0.94,3.97-2.14,5.67-3.54c3.17-2.91,5.75-6.71,7.62-10.25c1.4-2.66,2.71-5.4,3.61-8.28
				c0.88-2.81,1.28-5.99,1.3-8.94C86.06,60.41,85.86,58.39,85.17,56.73z M84.05,66.52c-0.39,4.88-2.77,9.17-5.12,13.35
				c-0.77,1.37-1.65,2.66-2.58,3.89c-0.96,1.49-2.15,2.81-3.57,3.97c-3.45,3.66-7.92,6.63-12.83,7.52c-0.44,0.14-0.9,0.25-1.41,0.33
				c-2.3,0.33-4.49-0.18-6.71-0.73c-0.84-0.21-1.75-0.47-2.69-0.78c-0.63-0.22-1.25-0.45-1.87-0.68c-2.38-0.96-4.7-2.28-6.11-4.11
				c-0.21-0.44-0.37-0.92-0.45-1.46c0.11,0.03,0.21,0.06,0.32,0.08c0.46,0.15,0.93,0.29,1.4,0.41c-1.9-1.46-3.79-2.93-5.2-4.93
				c-0.7-1-1.27-2.03-1.75-3.08c-0.01-0.02-0.03-0.04-0.04-0.06c-2.17-3.26-2.85-7.55-2.01-11.26c0.09-0.39,0.24-0.77,0.41-1.15
				c0.54-2.2,1.5-4.24,2.14-6.63c1.18-4.88,1.06-10.37,1.23-15.01c0.32-8.78-2.07-17.75-0.92-26.48c0.36-2.76,6.61-9.58,9.16-3.54
				c0.8,1.88,0.81,4.18,0.93,6.18c0.25,4.13,0.03,8.3,0.05,12.44c0.02,3.82,0.07,7.73,0.31,11.55c0.27,0.67,0.59,1.29,1.11,1.69
				c0.2,0.16,0.4,0.28,0.61,0.4c0.68-0.1,1.33-0.46,1.9-0.91c2.01-2.58,3.06-6.26,4.29-9.19c1.76-4.21,3.49-8.42,5.17-12.65
				c1.54-3.88,2.76-7.62,7.13-9.39c3.27-1.33,5.2,0.38,5.56,3.45c0.33,2.84-1.72,6.18-2.76,8.77c-1.55,3.86-3.02,7.75-4.62,11.6
				c-1.17,2.8-2.63,5.6-2.92,8.62c0,0.01,0,0.02,0,0.03c0.28,0.4,0.65,0.74,1.06,1.01c0.81-0.8,1.71-1.5,2.71-1.96
				c0.39-0.22,0.79-0.42,1.21-0.59c2.05-0.81,3.89-0.68,6.01-0.2c1.84,0.42,2.81,2.29,2.97,4.04c0.44,2.07-0.04,4.22-0.73,6.31
				c0.05-0.02,0.1-0.04,0.14-0.09c0.03-0.03,0.05-0.07,0.07-0.11c0.61-0.47,1.26-0.84,1.97-1.18c1.29-0.62,2.45-0.73,3.63-0.52
				C84.68,56.9,84.28,63.69,84.05,66.52z"/>
		</g>
		<g>
			<path class="st0" d="M72.83,47.14c-2.46-0.87-5.3-0.23-7.46,1.12c0.5-0.08,1.01-0.14,1.51-0.18c1.02,0.45,1.48,1.72,1.29,2.86
				c-0.44,2.71-1.73,5.09-3.58,7.15c-0.15,0.11-0.29,0.21-0.44,0.32c-1.19,0.75-2.43,1.49-3.14,2.7c-0.65,0.41-1.32,0.8-2,1.12
				c-0.25,0.12-0.75,0.27-1.33,0.45c-1.73,2.54-0.5,8.97,3.81,6.71c2.56-1.35,3.76-3.26,5.7-5.26c1.16-1.19,2.46-2.31,3.61-3.51
				c0.48-0.68,0.99-1.34,1.45-2.04c0.51-0.77,1.04-1.9,1.88-2.32c0.14-0.07,0.25,0.08,0.19,0.21c-0.27,0.51-0.57,1.02-0.89,1.51
				c0.57-0.49,1.14-0.99,1.7-1.49c0.1-0.38,0.21-0.75,0.32-1.13C75.54,52.57,76.08,48.29,72.83,47.14z"/>
			<path class="st0" d="M46.48,38.21c-0.04,1.08-0.03,2.15,0.07,3.21C46.52,40.35,46.5,39.28,46.48,38.21z"/>
			<path class="st0" d="M71.53,19.62c-0.17-1.31-0.7-2.21-1.29-3.15c-0.83-0.41-1.85-0.51-2.9-0.32c-0.13,0.04-0.25,0.07-0.38,0.13
				c-4.37,1.78-5.58,5.51-7.13,9.39c-1.68,4.23-3.41,8.45-5.17,12.65c-1.24,2.96-2.3,6.71-4.36,9.29c-0.12,0.14-0.22,0.27-0.33,0.39
				c0.33,0.18,0.71,0.29,1.14,0.29c0.39,0.01,0.49,0.3,0.4,0.59c-1.21,0.25-2.44,0.07-3.65-0.86c-0.03-0.02-0.05-0.05-0.07-0.07
				c-2.13-0.99-2.11-4.32-2.21-6.31c-0.22-4.84-0.38-9.63-0.14-14.48c0.08-1.72,0.4-5.22-0.03-8.16c-0.06-0.39-0.14-0.78-0.22-1.17
				c-0.59-2.47-1.89-4.21-4.63-3.47c-0.01,0-0.02,0-0.03,0c-2.12,1.2-4.03,3.87-4.22,5.35c-1.15,8.73,1.24,17.7,0.92,26.48
				c-0.21,5.82,0.03,13-2.41,18.6c0.16-0.16,0.33-0.32,0.49-0.48c0.11-0.12,0.21-0.24,0.32-0.35c0.04-0.04,0.07-0.06,0.11-0.08
				c0.25-0.26,0.75-0.71,0.97-0.82c0.95-0.79,1.95-1.56,2.88-2.35c0.18-0.16,0.36-0.31,0.54-0.47v-0.01
				c0.56-0.39,1.09-0.81,1.55-1.31c0.03-0.03,0.04-0.06,0.06-0.09c1.54-1.37,3.04-2.77,4.44-4.26c1.03-1.09,2.18-2.5,3.59-3.18
				c2.68-1.29,5.15-0.7,8-1.23c1.4-0.26,2.73-0.68,4.05-1.12c-0.56-0.93-0.13-2.39,0.17-3.33c0.57-1.73,1.28-3.44,2.04-5.12
				c0.77-2.16,1.65-4.28,2.57-6.39c1.24-2.85,2.59-5.7,3.6-8.65C70.8,23.85,71.77,21.48,71.53,19.62z"/>
			<path class="st0" d="M53.91,65.1c0.04,0.18-0.01,0.36-0.12,0.51c0.67,0.66,1.3,1.34,1.91,2.04c-0.28-1.59-0.1-3.32,0.64-4.53
				C55,63.61,53.72,64.26,53.91,65.1z"/>
			<path class="st0" d="M80.53,55.39c-0.94-0.06-1.88,0.11-2.9,0.6c-0.71,0.34-1.37,0.71-1.97,1.18c-0.03,0.03-0.05,0.07-0.07,0.11
				c-0.06,0.07-0.14,0.12-0.22,0.13c-0.09,0.07-0.17,0.14-0.26,0.21c-0.17,0.16-0.38,0.4-0.6,0.61c-0.1,0.16-0.64,0.69-0.79,0.63
				c-0.69,0.87-1.52,1.69-2.35,2.51c-2.07,2.04-3.84,4.43-5.89,6.48c-0.29,0.35-0.57,0.71-0.83,1.09c-0.61,0.89-1.77,2.51-1.29,3.69
				c0.62,1.52,2.54,2.05,4.02,1.7c0.69-0.16,1.32-0.4,1.92-0.69c-0.02-0.02-0.03-0.03-0.05-0.05c1.36-0.23,2.86-1.62,3.79-2.28
				c1.65-1.17,3.18-2.46,4.87-3.49c-1.22,1.21-2.41,2.54-3.68,3.75c2.8-0.6,5.6-2.64,7.26-4.79c0.15-0.2,0.39,0.01,0.25,0.21
				c-1,1.45-2.18,2.61-3.71,3.49c-1.35,0.79-3.16,1.89-4.79,1.82c-1.08,0.75-2.15,1.5-3.16,2.34c-2.05,1.01-5.06,1.9-6.86,0.12
				c-1.4-1.39-1.3-2.99-0.57-4.54c-0.6,0.41-1.22,0.78-1.9,1.09c-0.88,0.41-1.66,0.45-2.34,0.24c0.17,0.33,0.34,0.66,0.5,1.01
				c1.95,4.26,1.32,8.09,0.54,12.52c-0.09,0.48-0.9,0.5-0.8-0.05c0.93-5.22,0.16-10.43-3.06-14.91c-0.88-1.22-1.99-2.22-3.04-3.27
				c0.18-1.44,0.63-2.79,1.36-4.06c3.2-1.28,6.47-2.17,8.96-4.59c0.06-0.1,0.12-0.2,0.19-0.3c0.05-0.07,0.12-0.07,0.17-0.05
				c0.05-0.05,0.1-0.09,0.15-0.14c1.46-1.62,6.65-9.96-0.88-7.53c-1.5,0.49-3.09,1.1-4.69,1.22c-1.73,0.14-3.87-0.07-5.49,0.34
				c-3.77,0.96-6.3,4.74-8.99,7.19c-2.28,2.06-6.16,4.45-8.36,7.17c-0.17,0.3-0.31,0.61-0.44,0.93c-0.13,0.37-0.26,0.73-0.36,1.1
				c-0.73,2.77-0.36,6.04,0.39,8.52c0.76,2.53,1.9,5.13,3.64,7.18c2.78,2.74,6.2,4.11,10.58,3.61c0.57-0.06,0.28,0.87-0.2,0.93
				c-0.92,0.11-1.8,0.12-2.64,0.07c-0.87,0.32-2.2,0.08-1.94,0.2c-0.83-0.14-1.65-0.35-2.44-0.59c0.96,1.14,2.15,2.23,3.48,3.2
				c1.3,0.76,2.7,1.35,4.11,1.85c0.08-0.03,0.16-0.04,0.24-0.02c2.6,0.79,5.35,1.55,8.09,1.41c1.11-0.06,2.37,0.01,3.53-0.21
				c-1.09-0.12-2.2-0.36-3.34-0.77c-0.19-0.07-0.04-0.36,0.12-0.35c5.02,0.31,9.38-1.19,13.03-3.84c2.25-1.92,4.19-4.46,5.68-6.58
				c2.11-3,3.97-6.12,5.22-9.58C83.73,67.6,85.75,59.82,80.53,55.39z"/>
		</g>
	</g>
</g>
</svg>
